<svg width="800" height="600" viewBox="0 0 800 600" fill="none" xmlns="http://www.w3.org/2000/svg">
  <rect width="800" height="600" fill="#04040A"/>
  <defs>
    <linearGradient id="glow" x1="0" y1="0" x2="1" y2="1">
      <stop offset="0%" stop-color="#39FF14" stop-opacity="0.85"/>
      <stop offset="50%" stop-color="#00E5FF" stop-opacity="0.65"/>
      <stop offset="100%" stop-color="#39FF14" stop-opacity="0.85"/>
    </linearGradient>
    <radialGradient id="pulse" cx="0.5" cy="0.5" r="0.75">
      <stop offset="0%" stop-color="#39FF14" stop-opacity="0.5"/>
      <stop offset="60%" stop-color="#00E5FF" stop-opacity="0.25"/>
      <stop offset="100%" stop-color="#04040A" stop-opacity="0"/>
    </radialGradient>
    <pattern id="grid" width="40" height="40" patternUnits="userSpaceOnUse">
      <path d="M40 0H0V40" stroke="url(#glow)" stroke-width="0.75"/>
    </pattern>
  </defs>
  <rect width="800" height="600" fill="url(#grid)" opacity="0.6"/>
  <ellipse cx="400" cy="500" rx="240" ry="80" fill="url(#pulse)"/>
  <circle cx="400" cy="260" r="150" fill="url(#pulse)" opacity="0.65"/>
  <circle cx="400" cy="260" r="120" stroke="url(#glow)" stroke-width="1.5" fill="none" opacity="0.75"/>
  <path d="M320 240C340 220 360 215 380 225C400 235 420 235 440 225C460 215 480 220 500 240" stroke="#00E5FF" stroke-width="2" stroke-linecap="round" opacity="0.6"/>
  <path d="M290 280C330 260 370 255 400 265C430 275 470 275 510 255" stroke="#39FF14" stroke-width="2" stroke-linejoin="round" opacity="0.45"/>
</svg>
