<svg width="800" height="600" viewBox="0 0 800 600" fill="none" xmlns="http://www.w3.org/2000/svg">
  <rect width="800" height="600" rx="32" fill="#04050F"/>
  <g filter="url(#glow)">
    <circle cx="220" cy="180" r="90" fill="#39FF14" fill-opacity="0.3"/>
    <circle cx="450" cy="140" r="110" fill="#00E5FF" fill-opacity="0.25"/>
    <circle cx="560" cy="360" r="150" fill="#39FF14" fill-opacity="0.22"/>
    <circle cx="300" cy="380" r="120" fill="#00E5FF" fill-opacity="0.18"/>
  </g>
  <path d="M160 180L320 120L440 180L600 120" stroke="#00E5FF" stroke-opacity="0.6" stroke-width="2" stroke-linecap="round"/>
  <path d="M180 320L300 260L420 320L520 280L640 340" stroke="#39FF14" stroke-opacity="0.6" stroke-width="2" stroke-linecap="round"/>
  <g stroke="#0EF1FF" stroke-opacity="0.4" stroke-width="1.4">
    <circle cx="180" cy="180" r="12" fill="#061022"/>
    <circle cx="320" cy="120" r="12" fill="#061022"/>
    <circle cx="440" cy="180" r="12" fill="#061022"/>
    <circle cx="600" cy="120" r="12" fill="#061022"/>
    <circle cx="180" cy="320" r="12" fill="#061022"/>
    <circle cx="300" cy="260" r="12" fill="#061022"/>
    <circle cx="420" cy="320" r="12" fill="#061022"/>
    <circle cx="520" cy="280" r="12" fill="#061022"/>
    <circle cx="640" cy="340" r="12" fill="#061022"/>
  </g>
  <defs>
    <filter id="glow" x="0" y="0" width="800" height="600" filterUnits="userSpaceOnUse" color-interpolation-filters="sRGB">
      <feGaussianBlur stdDeviation="40" result="blur"/>
    </filter>
  </defs>
</svg>
